<svg xmlns="http://www.w3.org/2000/svg" width="2000" height="923.632" version="1.1" viewBox="0 0 265.732 122.719">
   <g id="cloud__01__svg" display="inline" transform="translate(24.2 -133.575)">
      <path fill="azure" fillOpacity="0.701" strokeWidth="0.203"
         d="M28.213 159.552c.389-2.09 1.499-3.949 2.227-5.912.134-.363.086-.792.278-1.126 1.933-3.35 6.155-5.634 9.189-7.884 3.13-2.321.173-.796 4.733-3.378 5.346-3.028 13.319-5.996 19.49-6.476 1.98-.154 4.152 0 6.125 0 1.67 0 3.352-.187 5.012 0 3.148.354 6.694 1.54 9.466 3.097 3.138 1.762 6.118 6.744 8.075 9.854.456.725 1.103 2.513 1.392 3.097.059.119.237.156.278.282.242.734.273 1.534.557 2.252.278.703.836 1.269 1.114 1.971.642 1.623.942 3.4 1.392 5.068.3 1.109.95 2.22 1.114 3.379.052.371-.041.753 0 1.126.376 3.421.145-.378.557 2.534.256 1.81.58 3.545.835 5.349.089.63-.28 1.968 0 2.534.344.696.278-.097.278.563 0 .22-.138 1.267 0 1.408.132.133.391-.084.557 0 1.151.582 2.581.06 3.898.281.29.05.546.233.836.282.64.108 1.304-.082 1.949 0 2.502.316.127.117 1.67.563 3.58 1.034-.207-.129 2.228.282 1.623.273 3.23 1.08 4.733 1.689.272.11.59.117.835.281 1.53 1.032 2.554 2.46 3.62 3.942.618.86 3.098 3.803 3.34 4.786.225.905.128 1.896.28 2.816.263 1.599.635 3.174.835 4.786.118.954-.307 2.45 0 3.379.096.291.418.565.556.844.042.084-.065.216 0 .282.147.148.41.133.557.281.328.332.42.917.836 1.127 1.103.558 2.242 1.083 3.34 1.689 1.802.994 3.525 2.056 5.29 3.097 1.911 1.127 3.987 1.843 5.848 3.097.424.286.397.86.835 1.126l1.114.563c.093.188.119.429.278.563 1.59 1.34 1.023.284 1.95 1.408.519.63.995 1.459 1.67 1.971.166.126.41.133.557.281.322.326.38 1.05.556 1.408l.279.282c.093.094.22.163.278.281.15.305.178 1.565.279 1.971.08.328.491.513.557.845.178.9.474 4.357.278 5.35-.405 2.047-2.282 5.46-3.62 7.038-.427.504-.972.898-1.392 1.408-.059.072.056.206 0 .281-.55.743-1.36 1.257-1.949 1.971-.132.161-.131.415-.278.563-1.422 1.438-4.74 3.287-6.682 3.942-.324.11-2.44.275-2.506.281-2.069.21-4.368-.411-6.404 0-1.118.227-3.975.631-5.012.282-.088-.03.066-.215 0-.282-.198-.2-1.11.095-1.392 0-.197-.066-.36-.215-.557-.281-.5-.169-1.16.129-1.67 0-.202-.051-.356-.23-.557-.282-.42-.106-.98.139-1.392 0-.549-.185-1.11-.45-1.67-.563-.614-.124-1.342.154-1.95 0-.616-.156-3.346-.988-3.62-1.126-1.71-.865-3.043-2.133-4.176-3.66-.442-.596-1.343-1.028-1.67-1.69-.042-.083.065-.215 0-.281-.018-.793-.628-.072-.836-.282-.065-.066.042-.197 0-.281-.213-.431-.496-.22-.835-.563-.147-.149-.132-.415-.278-.563-.066-.067 0 .187 0 .281 0 .3.206 2.043 0 2.253-.066.066-.196-.042-.279 0-.791.4-1.608 1.148-2.506 1.407-.267.078-.565-.068-.835 0-5.306 1.342 4.373-.27-3.898.845-2.78.375-5.55.937-8.353 1.126-3.046.206-6.14.076-9.188.282-3.26.22-6.469.281-9.745.281-.65 0-1.312.13-1.949 0-.203-.04-.351-.252-.557-.281-.957-.138-2.127.033-3.062-.282-.908-.306-4.366-3.633-5.012-4.505-.522-.703-.313-2.287-.835-2.815-.147-.148-4.148 1.858-4.455 1.97-1.82.67-3.928 1.367-5.847 1.69-1.393.235-3.049 0-4.455 0-.928 0-1.863.116-2.784 0-.85-.107-1.662-.42-2.506-.563-.55-.093-1.12.08-1.67 0-1.68-.243-3.42-.723-5.013-1.126-.459-.116-.928-.188-1.392-.282-.295-.06-1.713.238-1.949 0-.065-.066.066-.215 0-.281-.128-.13-.667.085-.835 0-.415-.21-.689-.63-1.114-.845-.52-.263-2.494-.138-3.062-.281-.128-.033-.186-.188-.279-.282-.278-.094-.546-.233-.835-.282-.627-.105-1.349-.079-1.95-.281-2.413-.814-.63-.126-1.948-1.126-.973-.738-.126.051-1.114-.282-2.824-.952.114-.095-1.67-1.126-.434-.25-.986-.27-1.392-.563-.273-.197-.306-.622-.557-.845-1.083-.957-2.525-1.61-3.62-2.534-.504-.425-.846-1.04-1.392-1.407-.173-.117-.41-.134-.557-.282-.564-.57-3.168-4.824-3.341-5.35-.04-.12-.227-1.073-.278-1.126-.403-.407-4.906.318-5.847 0-.318-.107-.518-.456-.836-.563-.417-.14-.974.141-1.392 0-.124-.042-.16-.222-.278-.281-.733-.37-1.718-.617-2.506-.845-.736-.212-1.517-.276-2.228-.563-1.102.034-1.618-1.049-2.505-1.408-.173-.07-.385.07-.557 0-1.052-.425-.833-.562-1.95-.844-.673-.17-.558-.424-1.113-.845-.166-.126-.371-.188-.557-.282-.65-.469-1.352-.87-1.949-1.407-.399-.359-2.313-2.786-2.506-3.097-.155-.252-.147-.58-.278-.845-.094-.19-.766-1.057-.835-1.408-.548-2.768-.623-4.978 1.113-7.32.653-.88 1.158-1.507 2.228-1.97 1.348-.585 1.776-.585 3.062-.845.723-.147 1.505-.699 2.228-.845.546-.11 1.13.137 1.67 0 .848-.214 1.674-.283 2.506-.563.418-.14.279.281.836 0 .083-.042-.066-.215 0-.282.37-.375 1.856.376 2.227 0 .066-.066-.066-.215 0-.281.108-.11.944 0 1.114 0h1.392c.093 0 .278.094.278 0 0-.456-.88-.89-1.113-1.126-.208-.21-.103-.608-.279-.845-.157-.212-.44-.326-.557-.563-.204-.413-.131-.962-.278-1.408-.595-1.805-2.374-4.846-1.114-6.757.052-.078.213.066.279 0 .55-.557.013-.748.556-1.408 1.84-2.232 7.22-3.941 10.024-3.941 1.386 0 2.388.503 3.62 1.126.082.042.212.066.278 0 .236-.24.32-.606.557-.845.4-.405 1.038-.59 1.392-1.126.248-.376.522-1.091.835-1.408 2.177-2.2.059.661 2.228-1.97.79-.96-.368-.215.835-1.127.67-.508 1.256-1.222 1.949-1.69.172-.116.41-.132.557-.28.146-.15.131-.415.278-.564a739.79 739.79 0 012.506-1.97c1.365-.921 3.221-1.88 4.733-2.535 1.464-.634 3.131-1.014 4.455-1.97.64-.463.944-1.383 1.67-1.69.522-.22 1.107.282 1.671.282.131 0 .161-.222.279-.282.583-.295 2.608-1.407 2.784-1.407">
      </path>
   </g>
   <g id="cloud__02__svg" transform="translate(24.2 -133.575)">
      <path fill="azure" fillOpacity="0.701" strokeWidth="0.273"
         d="M93.058 204.283c-1.202-.469-2.156-.937-3.434-1.115-2.128-.296-11.66-.302-13.736.372-.376.122-2.561 1.75-3.053 2.229-.649.63-1.116 1.43-1.526 2.228-.114.222.08.508 0 .743-.307.895-.839 1.706-1.145 2.6-.4 1.17-.798 5.84-.382 7.058.359 1.046 1.284 2.06 1.908 2.971.419.611.883 1.975 1.527 2.6.09.088.267-.055.381 0 .45.22.724.842 1.145 1.115.795.516 1.835 1.18 2.67 1.486.983.358 2.115.286 3.053.743.41.2.735.543 1.145.743.37.18.725-.02 1.526.371.455.222 1.038-.136 1.527 0 .547.152.974.609 1.526.743.494.12 1.027-.097 1.526 0 .177.034.207.329.382.371.37.09.77-.072 1.145 0 .278.055.487.305.763.372.814.198 1.874-.259 2.67 0 3.852 1.25 11.97.152 15.645-.743.494-.12 1.054.184 1.526 0 .38-.148 1.81-.998 2.29-1.114.37-.09.774.09 1.145 0 .426-.104 1.255-1.379 1.526-1.115.45.438-.46 4.53 0 5.2.642.938 1.75 1.632 2.67 2.23.872.565 1.393 1.704 2.29 2.228.88.514 1.458.473 2.29.743 1.35.438 2.638 1.604 4.197 1.857 3.693.6 7.327 1.669 11.066 2.229 1.405.21 2.782.605 4.197.743.76.074 1.535-.113 2.29 0 1.433.214 2.755.958 4.197 1.114.632.068 1.275-.068 1.907 0 3.426.37 6.781 1.086 10.303.743 2.239-.218 4.325-.764 6.486-1.114 2.19-.356 3.667-1.749 5.342-2.972.228-.166.563-.176.764-.371.773-.754 1.224-1.769 1.907-2.6.499-.607.832-1.248 1.145-1.858.117-.227 1.157-1.114.763-1.114-.328 0 .274 1.805 1.908 2.6 2.074 1.01 4.919 1.624 7.25 2.229.777.201 1.497.607 2.29.743 7.775 1.335 1.459-.04 6.105.371 3.572.316 7.088.372 10.684.372 1.375 0 3.8.25 5.342 0 3.03-.492.022-.372 3.052-.372 1.509 0 .962-.436 1.908-.743.77-.25 1.532-.126 2.29-.371 2.92-.948 6.65-4.424 8.394-6.686.877-1.138-.244.609 1.145-.743.26-.254 1.503-3.67 1.908-4.458.422-.822.179-6.489.381-6.686.09-.087.268.056.382 0 1.588-.773-.408.026.381-.743.09-.087.292.088.382 0 .09-.087-.07-.268 0-.371.2-.292.602-.43.763-.743.114-.222-.114-.522 0-.743.057-.11.325.11.382 0 .17-.332-.171-.782 0-1.114.75-1.46 1.225-7.485.763-9.287-.929-3.615-1.644-7.6-3.816-10.772-.29-.425-.09-1.06-.382-1.486-.157-.23-.592-.15-.763-.371-1.163-.263-.147-1.03-.381-1.486-.934-1.818-.462-.475-1.527-1.857-.937-.133-.158-.789-.381-1.114-.581-.849-1.258-.854-1.908-1.486-.79-.769 1.206.03-.382-.743-1.132-.551-2.599-.894-3.815-1.486-1.802-.877 2.329.195-1.527-.743-.718-.175-1.57.175-2.289 0-2.622-.638-5.222-.743-8.013-.743-2.318 0-4.678-.161-6.868.372-.37.09-.79-.138-1.145 0-1.667.649-3.43 1.483-4.96 2.228-.322.157-.404.743-.764.743-.233 0 .764-5.174.764-5.571 0-.447.154-1.407 0-1.858-.922-2.69.11.586-.764-1.114-.91-1.771-1.849-3.443-3.052-5.2-.294-.429-.851-.686-1.145-1.115-.07-.103.09-.284 0-.371-.64-.623-1.195-.512-1.908-.743-.341-.11-.441-.586-.763-.743-.537-.261-1.74.134-2.29 0-.174-.042-.22-.293-.38-.371-1.154-.562-4.385.183-5.343.742-.243.142-2.292 1.855-2.67 1.486-1.02-.991-.15-11.712-.382-13.743-.913-8-1.9-14.79-8.395-20.059-2.232-1.81-3.927-2.84-6.487-4.086-.41-.2-.719-.577-1.144-.743-.237-.092-.514.049-.763 0-.767.086-1.244-.58-1.908-.743-.987-.24-2.043.123-3.053 0-.282-.034-.483-.326-.763-.371-.525-.085-9.536-.249-10.302 0-.672.218-1.316.922-1.908 1.114-.242.079-.536-.11-.763 0-.57.277-1.01.755-1.527 1.115-.603.42-1.314.68-1.908 1.114-2.116 1.545-3.284 4.357-4.96 6.315-2.268 2.649-4.141 5.675-6.105 8.543-.989 1.443-2.24 2.875-3.053 4.458-.865 1.684-1.814 3.721-2.29 5.571-.092.36.093.754 0 1.115-.043.17-.324.205-.38.371-.081.235.08.508 0 .743-.274.8-.952 1.66-1.145 2.6-.064.31.245 1.99 0 2.229-.09.087-.292-.088-.382 0-.254.247.254.496 0 .743-.492.478-2.181-2.362-2.671-2.6-.114-.056-.292.087-.382 0-.09-.088.09-.284 0-.372-.18-.175-.535.11-.763 0-.16-.078-.21-.316-.381-.371-1.452-.471-8.476.079-9.54 1.114-1.15 1.12-1.898 3.678-2.289 5.2-.296 1.151-.253 6.943 0 8.172.149.726 1.725 3.892 1.145 4.458-.112.108-2.973.281-3.434.371-1.445-1.25-1.244.581-1.908.743-1.19.29-2.48.31-3.816.743-.57.185-3.53 3.158-3.816 3.714-.276.54-1.61 7.638-1.144 8.544.16.313.602.43.763.743.835 1.627 1.991 2.364 3.052 4.086z"
         display="inline"></path>
   </g>
   <g id="cloud__03__svg" transform="translate(24.2 -133.575)">
      <path fill="azure" fillOpacity="0.701" strokeWidth="0.265"
         d="M19.362 255.72c-3.464.84-6.833-.53-10.23-1.096-13.189-2.199 6.113 1.759-7.305-1.462-4.812-1.154-11.219-2.085-14.978-5.845-.888-.887-2.261-7.874-2.557-9.133-.4-1.695-1.631-6.5-.366-8.036 3.643-4.424 3.655-3.289 7.306-5.115 1.122-.56 2.143-1.317 3.288-1.826 3.325-1.478 7.793-2.334 11.325-2.923 1.303-.217 3.123.42 4.384 0 .935-.312-1.393-1.69-1.827-2.557-1.953-3.907 2.072 2.743-1.461-2.557-2.213-3.32-1.723-7.513 0-10.96 3.005-6.01 15.447-11.507 21.188-13.516 1.317-.461 1.98-.366 3.288-.366.808 0 2.83-.274 3.653 0 1.435.479 4.483 3.022 5.48 4.019.36.36 1.188 2.284 1.461 2.557.086.086.31-.109.365 0 .164.327-.163.77 0 1.096.192.383.731 1.29.731 1.461 0 .424.844 1.348 1.096 1.096.047-.047 1.425-3.104 1.461-3.288.048-.238-.109-.512 0-.73.154-.308.56-.432.73-.73.921-1.611 1.363-3.456 2.193-5.115 2.35-4.7 10.525-10.857 15.343-13.152 1.043-.496 2.186-.748 3.288-1.095 3.425-1.082 6.687-2.026 10.228-2.558 1.466-.22 2.905-.643 4.384-.73 5.26-.31 10.777 0 16.074 0 1.21 0 4.288-.43 5.48.365 2.679 1.786 5.704 8.427 6.21 10.96.072.358-.1.744 0 1.095.15.524.599.933.73 1.462.148.59-.192 1.249 0 1.826.736 2.205.464 4.58 1.462 6.576.412.823-.223 3.542.73 4.018.953.477 3.234-.208 4.02-.365 1.81-.362 4.865-.132 6.575 0 1.094-.264 1.926.606 2.922.73.604.076 1.222-.067 1.827 0 1.623.18 3.95 1.326 4.749 2.923l1.461 2.923c.433.865-.959 1.872-.73 2.557.086.258.279.472.365.73.038.116-.102.298 0 .366.32.213.788.134 1.096.365.218.163.173.538.365.73 1.25 1.25 2.991 2.244 4.384 3.288.882.662.742.928 1.461 1.827 1.446 1.808-.072-.437 1.827 1.461.525.526 1.036 1.555 1.46 2.192.386.578 1.553 4.795 1.097 5.48-1.314 1.97-.114-.252-1.461 1.096-.087.086.108.31 0 .365-.218.11-.513-.109-.731 0-.109.055.086.28 0 .365-.17.17-1.032.408 0 1.096.203.136.513-.109.73 0 .309.154.436.554.731.731.751.45 2.224.469 2.923.73.41.155.685.577 1.096.731 1.983.744 4.157 1.005 6.21 1.462.905.2 1.689.77 2.557 1.095.582.219 1.25.135 1.827.366.357.143 4.006 1.909 4.384 2.192.217.163.214.504.365.73.095.144.243.244.365.366.365.487.794.932 1.096 1.46 1.073 1.878 1.827 6.544 1.827 8.768 0 .569-.904 5.096-1.096 5.48-.154.308-.54.444-.73.73-.333.499.307.592-.366 1.097-2.87 2.152-11.309 2.192-14.978 2.192-1.138 0-1.538.11-2.557.365-1.885.471-5.695 0-7.672 0-.608 0-4.908.286-5.48 0-.956-.478-1.967-.619-2.922-1.096-.536-.268-1.56-.52-2.192-.73-.365-.122-.73.243-1.096 0-.226-.152-.139-.58-.365-.731-.203-.135-.492.047-.73 0-1.448-.29-1.095-.73-2.193-1.462-.101-.067-.279.087-.365 0-.086-.086.086-.279 0-.365-.086-.086-.264.068-.365 0-.547-.364-1.91-1.626-2.192-2.192-.055-.109.086-.279 0-.365-.183-.183-.548-.183-.73-.365-.173-.173.108-.513 0-.731-.426-.85-.528-2.353-.731-2.557-.411-.411-.49 1.577-.366 1.826.789 1.578 2.02 3.403 0 4.75-.953.635-2.618.235-3.653.365-1.335.167-2.686.508-4.018.73-1.51.252-3.215 0-4.75 0-4.192 0-8.048-.2-10.594-4.018-.302-.453-.39-1.036-.73-1.461-.17-.213-.58-.14-.73-.366-.464-.694-1.106-2.931-1.462-3.287-.712-.712-3.451.906-4.019 1.095-.516.173-.944.559-1.46.731-.463.154-.984-.095-1.462 0-3.772.754-6.288 1.827-10.229 1.827-.609 0-1.249.192-1.826 0-1.818-.606-4.568-3.153-5.845-4.75-.496-.619-.292-1.167-.731-1.826-.191-.287-.577-.423-.73-.73-.11-.218.172-.559 0-.731-.535-.534-3.99 3.492-4.384 4.018-.073.098.067.264 0 .366-1.447 2.17-5.144 4.646-6.941 5.845-.641.427-1.503.386-2.192.73-.393.197-.676.605-1.096.73-.825.248-1.717.18-2.557.366-.266.06-.487.244-.731.365-.609.122-1.212.278-1.827.366-1.509.215-3.797 0-5.114 0-3.5 0-7.012.147-10.229-1.462-1.733-.866-3.246-3.997-4.018-4.383-.11-.055-.311-.11-.366 0-.108.218.06.494 0 .73-.187.752-2.46 4.807-2.922 5.115-.414.276-1.39.95-1.827 1.096-1.28.426-6.5 0-8.402 0"
         display="inline"></path>
   </g>
   <g id="cloud__04__svg" transform="translate(24.2 -133.575)">
      <path fill="azure" fillOpacity="0.701" strokeWidth="0.265"
         d="M102.288 241.472c-2.227.667-4.644.366-6.941.366-1.218 0-2.455.217-3.653 0-.645-.118-1.205-.524-1.827-.731-1.206-.402-2.456-.668-3.653-1.096-7.91-2.825-11.976-10.26-12.42-18.266-.075-1.337-.204-2.694 0-4.018 1.285-8.36 5.484-9.498 13.15-9.498 1.614 0 3.265-.229 4.75.365 1.808.723 3.282.469 5.114.73.381.055.715.312 1.096.366.497.071 1.816.01 1.461.365-.335.335-2.623-2.058-2.922-2.557-.873-1.454-1.197-3.174-1.827-4.749-1.585-3.962-2.958-10.476.73-13.882 3.836-3.54 6.293-4.384 11.326-4.384 1.217 0 2.452-.2 3.653 0 .34.057.422.577.73.731.218.109.513-.109.731 0 .91.455 3.343 2.904 4.384 2.557.258-.086.58-.139.73-.365.135-.203-.077-.5 0-.73.14-.42.873-.508 1.096-.731.193-.193.188-.524.366-.731 2.33-2.72 5.308-5.032 8.037-7.306 2.633-2.195.198-.11 3.287-1.827 3.534-1.963-1.143-.345 4.019-2.557.815-.35 1.73-.412 2.557-.73.762-.294 1.411-.856 2.192-1.097.823-.253 1.722-.156 2.557-.365 1.12-.28 2.162-.836 3.288-1.096.474-.11.977.054 1.461 0 .617-.068 1.21-.288 1.827-.365 4.142-.518 9.471 1.809 12.786 4.018 1.677 1.119 3.63 4.532 4.749 6.21.19.287.553.436.73.731.53.882 1.03 2.061 1.462 2.923.109.218-.173.558 0 .73.086.086.279-.086.365 0 .172.173-.172.559 0 .731.086.086.28-.086.365 0 .149.149.614 1.227.73 1.461.195.388.04 1.136.366 1.462.355.355.97-.267 1.461-.366 1.214-.242.902-.545 1.827-.73.358-.072.757.135 1.096 0 .32-.128.423-.577.73-.731.456-.228 5.504 0 5.846 0 2.578 0 5.5-.423 8.037 0 .31.052 3.452 1.26 3.653 1.461.385.385.345 1.076.73 1.461.193.193.538.173.73.366 1.122 1.121-.213.304.366 1.461.154.308.54.444.73.73.068.102-.085.28 0 .366.087.086.28-.086.366 0 .206.206-.097 1.17 0 1.461.317.951.365.82.365 1.827v3.288c0 .121-.113.32 0 .365 2.01.804 4.491.261 6.576.365 4.03.202 8.031.48 12.055.73.67.043 2.943.01 3.654.366.109.055-.055.257 0 .366.327.654.768 1.172 1.096 1.826 1.08 2.163 3.126 6.642 2.191 9.133-1.454 3.879-.916 1.468-1.826 3.288-.055.109.086.279 0 .365-.906.906-.497-.02-1.461.365-.834.334-1.308.92-2.192 1.096-.697.14-2.255-.334-2.923 0-.112.057-1.307.808-.73 1.096.217.11.491-.048.73 0 1.015-.71.933.599 1.461.73 1.635.41 3.455.316 5.115.731.365.092.73-.182 1.096 0 .109.055-.086.28 0 .366.039.039 1.33.698 1.461.73.354.089.75-.115 1.096 0 .116.039-.097.293 0 .366.576.615 1.538.606 2.192 1.096.275.206.444.54.73.73.454.302 1.043.382 1.462.73.337.282.42.786.73 1.097.193.192.487.243.731.365.122.244.173.538.365.73.086.087.28-.085.366 0 .809.81 1.016 2.034 1.46 2.923.291.58 0 2.28 0 2.923 0 1.039-.233.717-.73 1.461-.213.32-.093.824-.365 1.096-.925.925-2.838 1.601-4.018 2.192-.872.436-1.949 0-2.923 0-1.027 0-3.126-.446-4.018 0-.154.077.193.365.365.365 2.043 0 3.822-.691 5.845-1.096 2.374-.474 5.263-.71 7.671-.365 2.483.355 3.42.956 5.48 2.192.105.063.28-.086.365 0 .411.41.771 1.339 1.096 1.826.366.55 1.17.877 1.462 1.462.968 1.936 1.137 5.41 0 7.306-.709 1.18-1.858 1.66-2.923 2.192-1.672.836 1.55-.152-1.096.73-1.578.526-3.843-.233-5.48 0-1.347.193-2.69.565-4.018.731-1.99.249-4.205 0-6.21 0h-13.882c-6.508 0-12.877.365-19.362.365-2.524 0-6.275.632-8.767-.365-.715-.286-1.524-.348-2.192-.73-.449-.257-.676-.796-1.096-1.096-.443-.317-1.008-.429-1.461-.731-1.972-1.314-3.945-2.959-5.845-4.384-.13-.098-2.73-2.02-2.923-1.826-.725.725.592 2.594.73 3.287.105.524.262 3.13 0 3.654-.384.77-1.125 1.326-1.826 1.826-5.499 3.928-22.394 2.923-26.668 2.923-7.09 0-11.778-.635-18.63-2.192-3.528-.802-3.451-.406-6.576-1.827-1.842-.837-1.442-1.747-1.827-3.288-.106-.426-.592-.68-.73-1.096-.04-.115.085-.279 0-.365-.087-.086-.28.086-.366 0-.086-.086.086-.28 0-.365-.147-.147-.89.069-1.096 0-.8-.267-1.4-.533-2.192-.73-1.465-.367-2.762-2.347-4.018-3.289z"
         display="inline"></path>
   </g>
</svg>