<svg xmlns="http://www.w3.org/2000/svg" width="1915.512" height="753.401" version="1.1" viewBox="0 0 506.812 199.337"
  xmlSpace="preserve">
  <g id="cloud__01__svg" fillOpacity="1" transform="translate(-1.662 -49.556)">
    <g fill="#bae5f6" stroke="#000">
      <path
        d="M68.823 137.818s-57.681-13.395-66.429 37.999c0 0-4.1 28.157 21.596 41.279 0 0 27.338 18.59 61.782 0 0 0 12.849 30.07 33.078 29.25 0 0 16.95 5.741 34.172-13.395 0 0 17.496 8.748 28.43 5.741 0 0 19.136-1.093 27.338-11.481 0 0 25.696 24.603 47.84 20.776 0 0 35.811-.547 50.847-30.344 0 0 23.51 4.1 34.445-19.136">
      </path>
      <path
        d="M341.369 200.1s11.224-29.952-7.665-43.416c0 0-11.498-12.09-29.84-6.046 0 0-16.972-23.906-41.062-23.906 0 0-6.844-75.017-77.198-76.39 0 0-55.572-5.221-75.83 59.079 0 0-16.698-11.816-33.123 5.22 0 0-10.403 13.74-7.665 23.357">
      </path>
    </g>
    <g fill="#cef2fe" stroke="none" transform="translate(-161.815 49.74)">
      <ellipse cx="313.174" cy="106.579" strokeWidth="1.077" rx="23.938" ry="24.386"></ellipse>
      <ellipse cx="260.379" cy="87.62" strokeWidth="1.077" rx="23.938" ry="24.386"></ellipse>
      <ellipse cx="196.736" cy="107.375" strokeWidth="0.521" rx="11.591" ry="11.807"></ellipse>
      <ellipse cx="251.268" cy="125.033" strokeWidth="0.526" rx="14.771" ry="9.419"></ellipse>
      <ellipse cx="421.05" cy="129.594" strokeWidth="0.387" rx="11.403" ry="6.612"></ellipse>
      <ellipse cx="362.825" cy="105.048" strokeWidth="1.413" rx="31.405" ry="31.992"></ellipse>
      <ellipse cx="431.553" cy="101.099" strokeWidth="0.749" rx="16.642" ry="16.953"></ellipse>
      <ellipse cx="346.429" cy="18.86" strokeWidth="0.589" rx="13.103" ry="13.348"></ellipse>
      <ellipse cx="393.898" cy="52.959" strokeWidth="0.722" rx="16.041" ry="16.341"></ellipse>
    </g>
    <g strokeDasharray="none" strokeLinecap="round" strokeLinejoin="round" strokeOpacity="1"
      transform="translate(-161.815 49.74)">
      <path fill="#a1daed" stroke="none" strokeWidth="0.794"
        d="M243.215 158.651s-12.722 25.818-49.017 6.361c0 0-32.928-11.6-22.825-31.057 0 0 22.45-28.063 48.643-1.87 26.193 26.192 23.2 26.566 23.2 26.566z">
      </path>
      <path fill="#a1daed" stroke="none" strokeWidth="0.794"
        d="M267.163 144.807c-30.683 14.967-47.895-14.593-47.895-14.593s-24.322 1.122-19.832 19.083c0 0 12.722 29.934 45.276 8.606 0 0 17.96 27.689 29.934 28.437 0 0 22.45 13.096 38.54-15.715 0 0 8.232 15.341 26.567 14.219 0 0 15.715 3.367 29.56-16.464 0 0 16.838 22.45 30.308 21.702 0 0 45.65 14.967 65.481-28.812 0 0 20.954 7.11 29.186-7.109 0 0 8.98-15.341 7.11-22.076 0 0 0-20.58-23.574-14.593 0 0-11.225.748-19.831 7.483 0 0-14.967 21.702-16.09 19.832 0 0-23.199 10.477-35.547-1.871 0 0-22.076 18.334-32.927 17.586 0 0-30.683 6.361-46.398-10.103 0 0-23.2 14.967-39.663 7.858 0 0-13.844-4.864-20.205-13.47z">
      </path>
      <path fill="none" stroke="#85c7df" strokeWidth="4.233"
        d="M221.419 130.234s7.064 9.973 17.87 14.96c0 0 9.142 4.571 21.609.831 0 0 14.13-5.402 16.207-11.22"></path>
      <path fill="none" stroke="#85c7df" strokeWidth="4.233"
        d="M267.215 142.588s7.59 9.486 19.2 14.23c0 0 9.822 4.348 23.216.79 0 0 15.181-5.138 17.413-10.672"></path>
      <path fill="none" stroke="#85c7df" strokeWidth="4.233"
        d="M324.064 143.116s9.143 19.532 37.817 17.454c0 0 9.143 1.247 24.103-5.402 0 0 14.96-6.65 19.947-14.96"></path>
      <path fill="none" stroke="#85c7df" strokeWidth="4.233"
        d="M399.282 133.143s7.48 13.713 25.35 14.545c0 0 14.13 1.246 23.272-10.805 0 0 7.896-9.143 8.311-11.22"></path>
    </g>
  </g>
  <g id="cloud__02__svg" fillOpacity="1" transform="translate(161.634 -49.741)">
    <g fill="#bae5f6" stroke="#000">
      <path
        d="M68.823 137.818s-57.681-13.395-66.429 37.999c0 0-4.1 28.157 21.596 41.279 0 0 27.338 18.59 61.782 0 0 0 12.849 30.07 33.078 29.25 0 0 16.95 5.741 34.172-13.395 0 0 17.496 8.748 28.43 5.741 0 0 19.136-1.093 27.338-11.481 0 0 25.696 24.603 47.84 20.776 0 0 35.811-.547 50.847-30.344 0 0 23.51 4.1 34.445-19.136">
      </path>
      <path
        d="M341.369 200.1s11.224-29.952-7.665-43.416c0 0-11.498-12.09-29.84-6.046 0 0-16.972-23.906-41.062-23.906 0 0-6.844-75.017-77.198-76.39 0 0-55.572-5.221-75.83 59.079 0 0-16.698-11.816-33.123 5.22 0 0-10.403 13.74-7.665 23.357">
      </path>
    </g>
    <g fill="#cef2fe" stroke="none" transform="translate(-161.815 49.74)">
      <ellipse cx="313.174" cy="106.579" strokeWidth="1.077" rx="23.938" ry="24.386"></ellipse>
      <ellipse cx="260.379" cy="87.62" strokeWidth="1.077" rx="23.938" ry="24.386"></ellipse>
      <ellipse cx="196.736" cy="107.375" strokeWidth="0.521" rx="11.591" ry="11.807"></ellipse>
      <ellipse cx="251.268" cy="125.033" strokeWidth="0.526" rx="14.771" ry="9.419"></ellipse>
      <ellipse cx="421.05" cy="129.594" strokeWidth="0.387" rx="11.403" ry="6.612"></ellipse>
      <ellipse cx="362.825" cy="105.048" strokeWidth="1.413" rx="31.405" ry="31.992"></ellipse>
      <ellipse cx="431.553" cy="101.099" strokeWidth="0.749" rx="16.642" ry="16.953"></ellipse>
      <ellipse cx="346.429" cy="18.86" strokeWidth="0.589" rx="13.103" ry="13.348"></ellipse>
      <ellipse cx="393.898" cy="52.959" strokeWidth="0.722" rx="16.041" ry="16.341"></ellipse>
    </g>
    <g strokeDasharray="none" strokeLinecap="round" strokeLinejoin="round" strokeOpacity="1"
      transform="translate(-161.815 49.74)">
      <path fill="#a1daed" stroke="none" strokeWidth="0.794"
        d="M243.215 158.651s-12.722 25.818-49.017 6.361c0 0-32.928-11.6-22.825-31.057 0 0 22.45-28.063 48.643-1.87 26.193 26.192 23.2 26.566 23.2 26.566z">
      </path>
      <path fill="#a1daed" stroke="none" strokeWidth="0.794"
        d="M267.163 144.807c-30.683 14.967-47.895-14.593-47.895-14.593s-24.322 1.122-19.832 19.083c0 0 12.722 29.934 45.276 8.606 0 0 17.96 27.689 29.934 28.437 0 0 22.45 13.096 38.54-15.715 0 0 8.232 15.341 26.567 14.219 0 0 15.715 3.367 29.56-16.464 0 0 16.838 22.45 30.308 21.702 0 0 45.65 14.967 65.481-28.812 0 0 20.954 7.11 29.186-7.109 0 0 8.98-15.341 7.11-22.076 0 0 0-20.58-23.574-14.593 0 0-11.225.748-19.831 7.483 0 0-14.967 21.702-16.09 19.832 0 0-23.199 10.477-35.547-1.871 0 0-22.076 18.334-32.927 17.586 0 0-30.683 6.361-46.398-10.103 0 0-23.2 14.967-39.663 7.858 0 0-13.844-4.864-20.205-13.47z">
      </path>
      <path fill="none" stroke="#85c7df" strokeWidth="4.233"
        d="M221.419 130.234s7.064 9.973 17.87 14.96c0 0 9.142 4.571 21.609.831 0 0 14.13-5.402 16.207-11.22"></path>
      <path fill="none" stroke="#85c7df" strokeWidth="4.233"
        d="M267.215 142.588s7.59 9.486 19.2 14.23c0 0 9.822 4.348 23.216.79 0 0 15.181-5.138 17.413-10.672"></path>
      <path fill="none" stroke="#85c7df" strokeWidth="4.233"
        d="M324.064 143.116s9.143 19.532 37.817 17.454c0 0 9.143 1.247 24.103-5.402 0 0 14.96-6.65 19.947-14.96"></path>
      <path fill="none" stroke="#85c7df" strokeWidth="4.233"
        d="M399.282 133.143s7.48 13.713 25.35 14.545c0 0 14.13 1.246 23.272-10.805 0 0 7.896-9.143 8.311-11.22"></path>
    </g>
  </g>
</svg>