<svg xmlns="http://www.w3.org/2000/svg" width="100%" height="718.46mm" version="1.1" viewBox="0 0 210 297"
  xmlSpace="preserve">
  <g id="cloud__01__svg">
    <path fill="azure" fillOpacity="0.701" strokeWidth="0.265"
      d="M33.974 177.177h-8.767c-1.913 0-5.62-.422-7.307 0-.572.143-4.801 1.879-5.114 2.192-.086.086.086.28 0 .365-.172.173-.513-.109-.73 0-1.521.76.39-.025-.366.73-.258.26-.77-.162-1.096 0-.109.055.086.28 0 .366-.53.53-2.266.44-2.922 1.096-.183.183-.183.548-.366.73-.172.173-.513-.108-.73 0-.49.245-.507.872-.731 1.097-.122.122-.974.243-1.096.365-.086.086.086.28 0 .365-.065.065-.836.472-1.096.731-.192.193-.173.538-.365.73-.086.087-.257-.054-.365 0-1.52.76.39-.025-.366.731s.03-1.155-.73.366L.73 189.232c-.11.218.109.513 0 .731-.836 1.672.151-1.55-.731 1.096-.173.518.242 1.342 0 1.827-.616 1.232-.037 2.63-.365 3.287-.656 1.311-.366 3.188-.366 4.75 0 .311-.23 2.327 0 2.557.086.086.28-.086.366 0 .358.358.83 2.026 1.096 2.557.368.737 1.068 1.406 1.46 2.192.055.109-.085.279 0 .365.087.086.312-.109.366 0 .11.218-.109.513 0 .73.055.11.28-.085.366 0 .086.087-.055.257 0 .366.76 1.52-.026-.39.73.365.756.756-1.155-.03.365.731.728.364 1.447.964 2.192 1.461.555.37 1.303.469 1.827.73 1.52.761-.39-.024.365.731.172.173.513-.108.73 0 .672.336 1.214 1.053 1.827 1.462.203.135.559-.172.731 0 .086.086-.109.31 0 .365.218.109.5-.077.73 0 .678.226 1.407.9 2.193 1.096 1.908.477 3.363.878 5.114 1.461 1.032.344 2.946.098 4.018.366.119.03-.109.31 0 .365.247.123 5.83.127 6.21 0 .164-.055.212-.288.366-.365.202-.101 1.3-.312 1.461-.366.519-.173 1.342.243 1.827 0 .83-.415 1.726-.315 2.557-.73.39-.195 1.072.194 1.461 0 .11-.055-.086-.28 0-.366.193-.192.487-.243.73-.365.564-.281 1.574-.056 2.193-.365.438-.22.657-.877 1.096-1.096.218-.11.558.172.73 0 .086-.086-.086-.28 0-.366.173-.172.559.173.731 0 .074-.074.555-1.272 1.096-.73.172.172-.109.513 0 .73.264.528.73 1.216.73 1.827 0 .15-.096 1 0 1.096.087.086.28-.086.366 0 .365.365 0 1.461.365 1.827.086.086.28-.087.366 0 .153.153.254.874.365 1.095.76 1.52-.025-.39.73.366.173.172-.172.558 0 .73a59.42 59.42 0 001.096.731c1.52.76-.39-.025.366.73.121.122.974.244 1.096.366.086.086-.086.28 0 .365.086.086.256-.054.365 0 1.52.76-.39-.025.365.73.172.173.559-.171.73 0 .488.488-.608.366.366.366.61 0 1.3.467 1.827.73.39.196.34-.195.73 0 .308.155.423.577.731.731.68.34 1.538.404 2.192.731.292.146.804-.146 1.096 0 .53.265.787.562 1.461.73 1.49.373 11.05.092 12.42-.365.89-.296 1.396-1.428 2.193-1.826.109-.055.279.086.365 0 .086-.086-.086-.28 0-.365.086-.087.256.054.365 0 .677-.339 1.18-1.138 1.827-1.462.49-.244.506-.871.73-1.096.013-.013.966-.235 1.096-.365.01-.009.787-1.406 1.462-.73.182.182.182.547.365.73.172.172.558-.172.73 0 .02.02.711 1.076.731 1.096.267.267 2.528.234 2.923.365.557.186 1.169.566 1.826.73 1.806.452 5.987 0 8.037 0 .582 0 3.283.371 3.653 0 .086-.085-.086-.278 0-.364.093-.093 2.294-.234 2.558-.366.233-.117 1.312-.582 1.46-.73.087-.086-.085-.28 0-.366.24-.24 1.28-.182 1.462-.365.086-.086-.086-.28 0-.365.172-.173.513.109.73 0 .309-.154.423-.577.731-.73.436-.219 1.497-.402 1.827-.732.172-.172-.172-.558 0-.73.086-.086.28.086.365 0 .086-.086-.086-.28 0-.365.086-.087.257.054.366 0 .308-.155.386-.731.73-.731.05 0-.067 1.693 0 1.826.077.154.288.212.365.366.11.218-.172.558 0 .73.087.086.28-.086.366 0 .172.173-.172.559 0 .731.756.756-.03-1.155.73.365.055.11-.086.28 0 .366.087.086.28-.086.366 0 .086.086-.086.279 0 .365.153.153.874.255 1.096.365.554.277 1.516 1.124 2.192 1.462.217.108.558-.173.73 0 .086.086-.086.279 0 .365.172.172.559-.172.73 0 .087.086-.085.279 0 .365.103.103 1.262.664 1.462.73.537.18 1.322.114 1.827.366.243.122.538.173.73.365.086.087-.109.311 0 .366.562.28 1.593-.2 2.192 0 .164.054.211.288.365.365.416.208.94-.078 1.827.365.383.192 1.535-.291 1.827 0 .086.086-.087.28 0 .366.24.24 2.526.167 2.922.365.154.077.198.324.365.365.627.157 1.964-.296 2.558 0 .154.077.21.289.365.366.435.217 8.869.21 9.498 0 .163-.055.211-.289.365-.366.221-.11.927.17 1.096 0 .183-.182.183-.548.366-.73.172-.173.512.109.73 0 .426-.213.67-.518 1.096-.731.22-.11.927.169 1.096 0 .183-.183.183-.548.365-.73.023-1.03.824-.094 1.096-.366.086-.086-.086-.28 0-.365.086-.086.257.054.366 0 .502-.251 1.94-1.416 2.557-1.827.298-.198.73-1.095.73-1.096.218-.109.513.11.731 0 .227-.113.177-.719.365-1.096.055-.109.257.055.366 0 .243-.121.974-.852 1.096-1.096.109-.217-.172-.558 0-.73.756-.756-.03 1.155.73-.366.111-.221.213-.942.366-1.095.086-.087.279.086.365 0 .172-.173-.172-.559 0-.731.086-.086.28.086.365 0 .086-.086-.086-.28 0-.365.193-.193.538-.173.73-.366.087-.086-.085-.279 0-.365.087-.086.28.086.366 0 .305-.304.061-1.157.366-1.461.755-.756-.03 1.155.73-.366.176-.35.243-1.704.365-1.826.124-.123 2.746.686 2.923.73.411.103 1.087-.187 1.461 0 .154.077.212.289.366.366.834.417 3.03 0 4.018 0 .244 0 .558.172.73 0 .087-.086-.085-.28 0-.366.232-.231 1.158.153 1.462 0 .425-.212.67-.517 1.096-.73.22-.11.927.169 1.096 0 .086-.086-.086-.28 0-.366.168-.167 1.503-.773 1.826-1.095.618-.619 1.805-1.417 2.192-2.192.11-.218-.109-.513 0-.731.252-.503.857-.491 1.096-.73.172-.173-.109-.513 0-.731.267-.533.585-.585.73-.73.087-.087-.085-.28 0-.366.087-.086.312.109.366 0 .027-.054.622-2.23.73-2.557.44-1.315-.438-3.069 0-4.384.11-.327.577-.423.731-.73.367-.735 0-2.46 0-3.289 0-.243.173-.558 0-.73-.086-.086-.31.109-.365 0-.109-.218.109-.513 0-.73-.054-.11-.28.085-.365 0-.193-.193-.244-.488-.366-.731-.11-.221.17-.928 0-1.096-.182-.183-.548-.183-.73-.366-.277-.277-.348-1.444-.73-1.826-.087-.086-.257.054-.366 0-.49-.245-.506-.872-.73-1.096-.068-.068-1.03-.298-1.097-.366-.121-.121-.243-.974-.365-1.095-.086-.087-.28.086-.365 0-.756-.756 1.155.03-.366-.731-.109-.055-.279.086-.365 0-.212-.212-.519-1.25-.73-1.461-.173-.173-.559.172-.731 0-.225-.225-.242-.852-.73-1.096-.389-.194-1.136-.04-1.462-.366-.183-.182-.183-.548-.365-.73-.798-.798-.594-.076-1.462-.366-.727-.242-.946-.945-1.096-1.095-.172-.173-.512.108-.73 0-.426-.213-.67-.518-1.096-.731-.53-.265-5.496.19-5.845.365-.27.135-.79 1.402-1.461.73-.223-.221-.691-1.42-1.096-1.826-.086-.086-.28.086-.366 0-.086-.086.055-.256 0-.365-.251-.504-.856-.492-1.096-.73-.086-.087.055-.257 0-.366-.176-.353-1.108-1.285-1.46-1.461-.11-.055-.28.086-.366 0-.086-.086.086-.28 0-.366-.172-.172-.513.11-.73 0-.73-.364-1.464-1.096-2.193-1.46-.218-.11-.558.171-.73 0-.086-.087.086-.28 0-.366-.173-.172-.513.109-.731 0-.469-.234-.975-.934-1.461-1.096-.892-.297-1.756-.33-2.557-.73-.289-.145-.788.102-1.096 0-.517-.173-.933-.6-1.462-.731-.402-.1-1.923.268-2.192 0-.086-.086.087-.28 0-.366-.476-.476-2.81.112-3.287-.365-.086-.086.086-.28 0-.365-.086-.086-.28.086-.366 0-.585-.586.386-2.883 0-3.653-.212-.426-.517-.67-.73-1.096-.11-.218.172-.559 0-.731-.086-.086-.28.086-.366 0-.243-.244.244-1.218 0-1.461-.086-.086-.279.086-.365 0-.243-.244.244-1.218 0-1.461-.183-.183-.548-.183-.73-.366-.147-.147.068-.89 0-1.096-.375-1.123-1.506-2.689-1.827-3.653-.077-.23.109-.513 0-.73-.055-.11-.28.086-.365 0-.183-.184-.126-1.222-.366-1.462-.086-.086-.279.086-.365 0-.086-.086.086-.279 0-.365-.146-.146-.464-.198-.73-.73-.11-.219.172-.56 0-.731-.173-.173-.56.172-.731 0-.183-.183-.126-1.222-.366-1.462-.086-.086-.279.087-.365 0-.086-.086.055-.256 0-.365-.456-.912-.275.181-.73-.73-.223-.446-.437-1.533-.731-1.827-.086-.086-.257.054-.365 0-.345-.173-1.265-1.434-1.462-1.827-.37-.738-.93-2.11-1.826-2.557-.11-.054-.28.086-.366 0-.086-.086.086-.28 0-.365-.086-.086-.279.086-.365 0-.756-.756 1.155.03-.365-.73-.216-.109-1.34-.61-1.462-.731-.086-.087.087-.28 0-.366-.172-.172-.558.172-.73 0-.08-.079-.294-.695-.365-.73-.218-.11-.5.077-.731 0-.378-.126-.734-.55-1.096-.731-.218-.109-.558.172-.73 0-.756-.756 1.154.03-.366-.73-.41-.206-1.038-.154-1.461-.366-.545-.272-.904-.817-1.461-1.096-.218-.109-.5.077-.731 0-2.646-.882.576.105-1.096-.73-.732-.366-1.821-.606-2.557-1.096-.476-.318-.958-.844-1.461-1.096-.218-.11-.513.109-.731 0-.638-.32-1.657-1.194-2.192-1.462-.218-.109-.558.173-.73 0-.087-.086.085-.279 0-.365-.342-.341-3.185 0-3.654 0-.682 0-.521-.078-1.096-.365-.792-.396-5.15 0-6.21 0-1.485 0-8.613-.99-9.863-.366-.531.266-.788.563-1.462.731-.236.06-.513-.109-.73 0-.11.055.086.28 0 .365-.213.213-1.155.212-1.462.366-.855.427-1.311.437-2.192.73-.378.126-.733.55-1.095.73-.466.234-2.457.499-2.923.732-.26.13-.47.6-.73.73-.327.164-.75-.115-1.097 0-.77.257-1.54 1.027-2.191 1.461-.19.127-.95.218-1.096.366-.086.086.101.298 0 .365-.481.32-1.345.49-1.827.73-.73.366-1.096 1.462-1.826 1.827-.096.048-1.367.906-1.462 1.096-.054.11.086.28 0 .366-.086.086-.279-.087-.365 0-.122.121-.244.974-.365 1.095-.086.087-.257-.054-.366 0-.58.29-.855 1.22-1.096 1.462-.224.224-.85.241-1.096.73-.188.377-.215.838-.73 1.096-.504.252-.327-.442-.73.366-.112.221-.213.942-.366 1.096-.086.086-.28-.087-.365 0-.31.31-.488.73-.731 1.095-.214.32-.093.824-.365 1.096-.756.756.03-1.155-.731.366-.109.218.109.513 0 .73-.427.854-1.005 1.646-1.461 2.558-.11.217.172.558 0 .73-.086.086-.311-.109-.366 0-.163.327.259.838 0 1.096-.086.086-.279-.086-.365 0-.169.169.11.875 0 1.096-.145.29-.585.44-.73.73-.177.354-.213 2.04-.366 2.193-.57.57-1.803-.601-2.192-.731-.905-.302-9.117-.739-9.863-.365-.154.077-.211.288-.365.365-.221.11-.928-.169-1.096 0-.488.487.775.35-.366.73-.23.078-.5-.076-.73 0-.28.094-.828.597-1.096.731-.545.272-1.92 1.648-2.192 2.192-.055.109.086.28 0 .365-.756.756.03-1.155-.73.366-.11.218.108.513 0 .73-.28.558-.824.917-1.097 1.462-.195.39.195 1.071 0 1.46-.054.11-.279-.085-.365 0-.054.054 0 5.896 0 6.576">
    </path>
  </g>
  <g id="cloud__02__svg">
    <path fill="azure" fillOpacity="0.701" strokeWidth="0.265"
      d="M71.734 177.12h-8.767c-1.913 0-5.62-.421-7.306 0-.573.144-4.802 1.88-5.115 2.192-.086.087.086.28 0 .366-.172.172-.513-.11-.73 0-1.52.76.39-.025-.366.73-.258.259-.769-.163-1.096 0-.109.055.086.28 0 .366-.53.53-2.266.439-2.922 1.096-.183.182-.183.548-.366.73-.172.173-.512-.109-.73 0-.49.245-.506.872-.73 1.096-.123.122-.975.244-1.097.366-.086.086.086.279 0 .365-.065.065-.836.471-1.096.73-.192.193-.172.539-.365.731-.086.086-.256-.054-.365 0-1.52.76.39-.025-.366.73-.755.757.03-1.154-.73.366l-1.096 2.192c-.11.218.109.513 0 .73-.836 1.672.151-1.55-.73 1.097-.174.518.241 1.341 0 1.826-.617 1.232-.038 2.631-.366 3.288-.655 1.31-.365 3.188-.365 4.749 0 .312-.23 2.328 0 2.557.086.086.279-.086.365 0 .358.358.83 2.027 1.096 2.557.368.738 1.068 1.407 1.461 2.192.055.11-.086.28 0 .366.086.086.31-.11.365 0 .11.217-.109.512 0 .73.055.11.28-.086.366 0 .086.086-.055.257 0 .366.76 1.52-.026-.391.73.365s-1.155-.03.366.73c.727.364 1.446.965 2.192 1.462.554.37 1.302.468 1.826.73 1.52.76-.39-.025.365.731.173.172.513-.109.731 0 .67.335 1.213 1.052 1.827 1.461.202.135.558-.172.73 0 .086.086-.109.311 0 .366.218.108.5-.077.73 0 .678.225 1.407.899 2.193 1.095 1.908.478 3.363.878 5.114 1.462 1.032.344 2.947.097 4.019.365.118.03-.11.31 0 .365.246.124 5.83.127 6.21 0 .163-.054.211-.288.365-.365.202-.101 1.3-.311 1.461-.365.519-.173 1.342.242 1.827 0 .83-.415 1.726-.315 2.557-.73.39-.196 1.072.194 1.461 0 .11-.055-.086-.28 0-.366.193-.193.488-.244.731-.366.563-.28 1.574-.056 2.192-.365.438-.219.658-.877 1.096-1.096.218-.109.558.172.73 0 .087-.086-.086-.279 0-.365.173-.172.559.172.731 0 .074-.074.555-1.272 1.096-.73.172.171-.109.512 0 .73.264.527.73 1.216.73 1.826 0 .15-.096 1 0 1.096.087.087.28-.086.366 0 .365.366 0 1.462.365 1.827.086.086.28-.086.366 0 .153.153.254.875.365 1.096.76 1.52-.025-.39.73.365.173.172-.172.559 0 .73a59.42 59.42 0 001.097.731c1.52.76-.391-.025.365.731.122.122.974.244 1.096.365.086.087-.086.28 0 .366.086.086.256-.055.365 0 1.52.76-.39-.025.365.73.173.173.559-.172.731 0 .487.487-.609.366.365.366.61 0 1.3.467 1.827.73.39.196.34-.195.73 0 .309.154.423.577.731.73.68.341 1.538.404 2.192.732.292.146.804-.147 1.096 0 .53.265.788.562 1.461.73 1.49.372 11.051.091 12.421-.365.89-.297 1.395-1.428 2.192-1.827.109-.054.279.086.365 0 .086-.086-.086-.279 0-.365.086-.086.257.054.365 0 .677-.338 1.18-1.138 1.827-1.461.49-.245.506-.872.73-1.096.014-.013.967-.235 1.097-.366.009-.009.786-1.405 1.46-.73.184.183.184.548.366.73.172.173.559-.172.73 0 .02.02.712 1.077.731 1.096.268.268 2.528.234 2.923.366.557.185 1.169.566 1.827.73 1.805.452 5.986 0 8.036 0 .582 0 3.283.37 3.654 0 .086-.086-.087-.279 0-.365.093-.093 2.293-.233 2.557-.365.234-.117 1.312-.582 1.461-.73.086-.087-.086-.28 0-.366.24-.24 1.278-.182 1.461-.366.086-.086-.086-.279 0-.365.172-.172.513.11.73 0 .309-.154.423-.576.731-.73.436-.218 1.497-.401 1.827-.731.172-.172-.172-.559 0-.73.086-.087.28.085.365 0 .086-.087-.086-.28 0-.366.086-.086.257.054.366 0 .308-.154.386-.73.73-.73.05 0-.067 1.692 0 1.826.077.154.289.211.366.365.109.218-.173.559 0 .73.086.087.279-.085.365 0 .172.173-.172.56 0 .731.756.756-.03-1.155.73.366.055.109-.086.279 0 .365.087.086.28-.086.366 0 .086.086-.086.28 0 .365.153.154.874.255 1.096.366.554.277 1.516 1.123 2.192 1.461.218.109.558-.172.73 0 .086.086-.086.28 0 .365.173.173.559-.172.731 0 .086.086-.086.28 0 .366.102.102 1.261.664 1.461.73.537.18 1.322.113 1.827.366.243.121.538.172.73.365.087.086-.109.31 0 .365.563.281 1.593-.2 2.192 0 .164.055.212.288.366.365.415.208.939-.078 1.826.366.383.191 1.535-.292 1.827 0 .086.086-.086.279 0 .365.24.24 2.526.167 2.922.365.154.077.199.324.366.366.626.156 1.963-.297 2.557 0 .154.077.211.288.365.365.435.218 8.869.21 9.498 0 .164-.054.212-.288.366-.365.22-.11.927.169 1.095 0 .183-.183.183-.548.366-.73.172-.173.513.108.73 0 .426-.214.67-.519 1.096-.732.22-.11.927.17 1.096 0 .183-.182.183-.547.366-.73.022-1.029.823-.093 1.096-.365.086-.087-.087-.28 0-.366.086-.086.256.055.365 0 .502-.251 1.94-1.416 2.557-1.826.298-.199.73-1.096.73-1.096.219-.11.513.109.731 0 .227-.114.177-.72.366-1.096.054-.11.256.054.365 0 .244-.122.974-.853 1.096-1.096.109-.218-.172-.559 0-.73.756-.757-.03 1.154.73-.366.111-.221.213-.943.366-1.096.086-.086.279.086.365 0 .172-.172-.172-.558 0-.73.086-.087.28.085.365 0 .087-.087-.086-.28 0-.366.193-.193.539-.173.731-.365.086-.086-.086-.28 0-.366.086-.086.28.087.365 0 .305-.304.061-1.156.366-1.46.756-.757-.03 1.154.73-.366.176-.351.243-1.705.366-1.827.123-.123 2.745.687 2.922.73.411.104 1.087-.186 1.461 0 .154.078.212.29.366.366.835.418 3.03 0 4.018 0 .244 0 .559.172.73 0 .087-.086-.085-.279 0-.365.233-.232 1.158.152 1.462 0 .426-.213.67-.518 1.096-.73.22-.111.927.168 1.096 0 .086-.087-.086-.28 0-.366.168-.168 1.504-.773 1.827-1.096.618-.618 1.804-1.417 2.191-2.192.11-.218-.109-.513 0-.73.252-.504.857-.492 1.096-.731.173-.172-.109-.513 0-.73.267-.534.585-.585.731-.731.086-.086-.086-.28 0-.366.086-.086.31.11.365 0 .027-.054.622-2.23.73-2.557.44-1.315-.437-3.069 0-4.384.11-.326.578-.422.732-.73.367-.734 0-2.459 0-3.288 0-.244.172-.559 0-.73-.087-.087-.311.108-.366 0-.109-.219.11-.514 0-.731-.054-.11-.279.086-.365 0-.193-.193-.244-.487-.365-.731-.11-.22.168-.927 0-1.096-.183-.183-.548-.183-.731-.365-.277-.277-.348-1.444-.73-1.827-.087-.086-.257.055-.366 0-.49-.244-.506-.871-.73-1.096-.068-.067-1.03-.298-1.097-.365-.121-.122-.243-.974-.365-1.096-.086-.086-.28.086-.365 0-.756-.756 1.155.03-.365-.73-.11-.055-.28.085-.366 0-.212-.212-.519-1.25-.73-1.462-.173-.172-.559.172-.731 0-.224-.224-.241-.851-.73-1.096-.389-.194-1.136-.04-1.462-.365-.183-.183-.183-.548-.365-.73-.798-.799-.593-.077-1.461-.366-.728-.243-.946-.946-1.096-1.096-.173-.172-.513.109-.731 0-.426-.213-.67-.518-1.096-.73-.53-.266-5.496.19-5.845.365-.27.135-.79 1.402-1.461.73-.222-.222-.691-1.421-1.096-1.826-.086-.086-.28.086-.366 0-.086-.086.055-.257 0-.366-.251-.503-.856-.491-1.095-.73-.087-.086.054-.257 0-.366-.177-.353-1.109-1.284-1.462-1.46-.109-.055-.279.085-.365 0-.086-.087.086-.28 0-.366-.172-.172-.513.109-.73 0-.73-.364-1.464-1.097-2.193-1.461-.217-.11-.558.172-.73 0-.086-.086.086-.28 0-.366-.172-.172-.513.11-.73 0-.47-.234-.976-.933-1.462-1.096-.892-.297-1.755-.33-2.557-.73-.289-.144-.788.102-1.096 0-.517-.172-.933-.599-1.461-.73-.403-.101-1.924.268-2.192 0-.086-.087.086-.28 0-.366-.477-.477-2.811.111-3.288-.365-.086-.087.086-.28 0-.366-.086-.086-.28.086-.365 0-.586-.585.385-2.882 0-3.653-.213-.425-.518-.67-.731-1.096-.109-.218.172-.558 0-.73-.086-.087-.28.086-.365 0-.244-.244.243-1.218 0-1.462-.087-.086-.28.086-.366 0-.243-.243.244-1.217 0-1.461-.182-.183-.548-.183-.73-.365-.147-.147.069-.89 0-1.096-.375-1.123-1.505-2.69-1.827-3.653-.077-.231.109-.513 0-.731-.054-.109-.28.086-.365 0-.183-.183-.126-1.222-.366-1.461-.086-.086-.279.086-.365 0-.086-.086.086-.28 0-.366-.146-.146-.464-.197-.73-.73-.11-.218.172-.559 0-.73-.173-.173-.559.171-.731 0-.183-.184-.126-1.223-.365-1.462-.087-.086-.28.086-.366 0-.086-.086.055-.257 0-.365-.456-.912-.274.18-.73-.731-.223-.446-.437-1.533-.731-1.827-.086-.086-.256.055-.365 0-.345-.172-1.265-1.433-1.462-1.826-.369-.739-.93-2.11-1.826-2.557-.109-.055-.28.086-.365 0-.087-.086.086-.28 0-.366-.087-.086-.28.086-.366 0-.756-.756 1.155.03-.365-.73-.216-.108-1.34-.61-1.461-.731-.086-.086.086-.28 0-.365-.173-.172-.559.172-.731 0-.08-.08-.294-.695-.365-.73-.218-.11-.5.076-.73 0-.38-.127-.734-.55-1.097-.732-.218-.108-.558.173-.73 0-.756-.755 1.155.03-.366-.73-.41-.205-1.038-.154-1.461-.365-.545-.273-.904-.818-1.461-1.096-.218-.11-.5.077-.73 0-2.647-.882.575.105-1.097-.731-.732-.366-1.821-.605-2.557-1.096-.476-.317-.957-.844-1.461-1.096-.218-.109-.513.109-.73 0-.64-.319-1.658-1.194-2.193-1.461-.218-.11-.558.172-.73 0-.087-.086.086-.28 0-.365-.341-.341-3.185 0-3.654 0-.681 0-.52-.078-1.096-.366-.792-.396-5.15 0-6.21 0-1.485 0-8.613-.99-9.863-.365-.53.265-.788.562-1.462.73-.236.06-.512-.108-.73 0-.11.055.086.28 0 .366-.213.212-1.154.212-1.461.365-.856.428-1.312.437-2.192.73-.379.127-.734.55-1.096.731-.466.233-2.457.498-2.923.731-.26.13-.47.6-.73.73-.327.164-.75-.115-1.096 0-.772.258-1.541 1.028-2.192 1.462-.19.126-.949.218-1.096.365-.086.086.101.298 0 .366-.481.32-1.345.49-1.827.73-.73.365-1.096 1.461-1.826 1.827-.096.048-1.366.905-1.462 1.096-.054.109.087.279 0 .365-.086.086-.279-.086-.365 0-.122.122-.243.974-.365 1.096-.086.086-.257-.055-.366 0-.58.29-.854 1.22-1.095 1.461-.225.225-.852.242-1.096.73-.189.378-.215.839-.731 1.097-.504.252-.327-.443-.73.365-.111.221-.213.943-.366 1.096-.086.086-.28-.086-.365 0-.31.31-.487.73-.73 1.096-.214.32-.094.824-.366 1.096-.756.756.03-1.155-.73.365-.11.218.108.513 0 .73-.428.854-1.006 1.646-1.462 2.558-.109.218.172.558 0 .73-.086.087-.31-.108-.365 0-.164.327.258.838 0 1.097-.087.086-.28-.087-.366 0-.169.168.11.875 0 1.096-.145.29-.585.44-.73.73-.177.354-.213 2.039-.366 2.192-.57.57-1.803-.601-2.192-.73-.904-.302-9.116-.74-9.863-.366-.154.077-.211.288-.365.365-.22.11-.927-.168-1.096 0-.487.487.775.351-.366.731-.23.077-.5-.077-.73 0-.28.093-.828.597-1.096.73-.544.273-1.92 1.648-2.192 2.193-.054.108.086.279 0 .365-.756.756.03-1.155-.73.365-.11.218.108.513 0 .73-.28.558-.824.917-1.097 1.462-.194.39.195 1.072 0 1.461-.054.11-.279-.086-.365 0-.053.054 0 5.895 0 6.576">
    </path>
  </g>
</svg>