<svg xmlns="http://www.w3.org/2000/svg" width="1916.199" height="752.708" version="1.1" viewBox="0 0 506.994 199.154"
  xmlSpace="preserve">
  <g id="cloud__01__svg" transform="translate(-1.662 -49.74)">
    <g fill="#fefefe" fillOpacity="1" stroke="#000" strokeDasharray="none" strokeOpacity="1">
      <path strokeWidth="1"
        d="M68.823 137.818s-57.681-13.395-66.429 37.999c0 0-4.1 28.157 21.596 41.279 0 0 27.338 18.59 61.782 0 0 0 12.849 30.07 33.078 29.25 0 0 16.95 5.741 34.172-13.395 0 0 17.496 8.748 28.43 5.741 0 0 19.136-1.093 27.338-11.481 0 0 25.696 24.603 47.84 20.776 0 0 35.811-.547 50.847-30.344 0 0 23.51 4.1 34.445-19.136">
      </path>
      <path strokeWidth="1.003"
        d="M341.369 200.1s11.224-29.952-7.665-43.416c0 0-11.498-12.09-29.84-6.046 0 0-16.972-23.906-41.062-23.906 0 0-6.844-75.017-77.198-76.39 0 0-55.572-5.221-75.83 59.079 0 0-16.698-11.816-33.123 5.22 0 0-10.403 13.74-7.665 23.357">
      </path>
    </g>
  </g>
  <g id="cloud__02__svg" transform="translate(161.815 -49.74)">
    <g fill="#fefefe" fillOpacity="1" stroke="#000" strokeDasharray="none" strokeOpacity="1">
      <path strokeWidth="1"
        d="M68.823 137.818s-57.681-13.395-66.429 37.999c0 0-4.1 28.157 21.596 41.279 0 0 27.338 18.59 61.782 0 0 0 12.849 30.07 33.078 29.25 0 0 16.95 5.741 34.172-13.395 0 0 17.496 8.748 28.43 5.741 0 0 19.136-1.093 27.338-11.481 0 0 25.696 24.603 47.84 20.776 0 0 35.811-.547 50.847-30.344 0 0 23.51 4.1 34.445-19.136">
      </path>
      <path strokeWidth="1.003"
        d="M341.369 200.1s11.224-29.952-7.665-43.416c0 0-11.498-12.09-29.84-6.046 0 0-16.972-23.906-41.062-23.906 0 0-6.844-75.017-77.198-76.39 0 0-55.572-5.221-75.83 59.079 0 0-16.698-11.816-33.123 5.22 0 0-10.403 13.74-7.665 23.357">
      </path>
    </g>
  </g>
</svg>